<svg width="182" height="154" viewBox="0 0 182 154" fill="none" xmlns="http://www.w3.org/2000/svg">
<path d="M108.614 132.044H94.8225C92.8596 132.044 91.2682 133.637 91.2682 135.602C91.2682 137.566 92.8596 139.159 94.8225 139.159H108.614C110.743 139.159 112.475 140.892 112.475 143.022C112.475 145.152 110.743 146.885 108.614 146.885H71.4878C65.907 146.885 60.6588 144.423 57.0899 140.129L48.2114 129.448C43.4474 123.716 36.514 120.36 29.0954 120.147V99.1334H42.1823C48.6362 99.1334 54.7471 101.604 59.3898 106.089L78.5524 124.602C79.9071 125.91 79.9704 128.102 78.6932 129.487C77.3914 130.898 75.1819 130.99 73.7674 129.692L58.723 115.89C57.2766 114.563 55.0279 114.66 53.7016 116.108C52.375 117.557 52.4728 119.807 53.9199 121.134L68.9644 134.937C70.9934 136.798 73.5609 137.717 76.1221 137.717C78.9814 137.717 81.8327 136.571 83.9168 134.312C87.7935 130.109 87.6019 123.456 83.4895 119.483L64.3269 100.971C58.3519 95.1983 50.4875 92.0191 42.1823 92.0191H28.4051C27.0678 88.8514 23.9315 86.6225 20.2851 86.6225H3.55432C1.59143 86.6225 0 88.2149 0 90.1798V116.192C0 118.157 1.59143 119.75 3.55432 119.75C5.51722 119.75 7.10865 118.157 7.10865 116.192V93.7368H20.2855C21.2239 93.7368 21.9871 94.501 21.9871 95.4398V123.952C21.9871 124.891 21.2239 125.655 20.2855 125.655H16.594C14.6311 125.655 13.0396 127.247 13.0396 129.212C13.0396 131.177 14.6311 132.77 16.594 132.77H20.2851C23.9806 132.77 27.1496 130.48 28.4559 127.244C33.997 127.276 39.2007 129.732 42.7468 133.998L51.6253 144.679C56.5493 150.603 63.7887 154 71.4878 154H108.614C114.662 154 119.583 149.075 119.583 143.022C119.583 136.969 114.662 132.044 108.614 132.044Z" fill="#193554"/>
<path d="M178.445 32.8607C176.482 32.8607 174.891 34.4531 174.891 36.418V60.2632H161.714C160.776 60.2632 160.013 59.499 160.013 58.5602V30.048C160.013 29.1091 160.776 28.345 161.714 28.345H165.145C167.108 28.345 168.699 26.7525 168.699 24.7877C168.699 22.8231 167.108 21.2303 165.145 21.2303H161.714C158.019 21.2303 154.85 23.5201 153.543 26.7558C148.002 26.7241 142.799 24.2682 139.252 20.0019L130.374 9.32143C125.45 3.39757 118.211 0 110.511 0H73.3853C67.3374 0 62.4166 4.92452 62.4166 10.9775C62.4166 17.0305 67.3374 21.955 73.3853 21.955H88.5666C90.5295 21.955 92.121 20.3626 92.121 18.3977C92.121 16.4328 90.5295 14.8404 88.5666 14.8404H73.3853C71.2568 14.8404 69.5249 13.1075 69.5249 10.9772C69.5249 8.84719 71.2564 7.1139 73.3853 7.1139H110.511C116.093 7.1139 121.341 9.57651 124.91 13.8706L133.788 24.5511C138.552 30.2825 145.486 33.6391 152.904 33.8519V54.8659H139.817C133.363 54.8659 127.253 52.3955 122.61 47.91L103.447 29.3977C102.093 28.0888 102.029 25.8976 103.306 24.5126C104.608 23.1013 106.818 23.0095 108.232 24.307L123.277 38.1093C124.724 39.4367 126.972 39.3392 128.299 37.8909C129.625 36.4425 129.527 34.1923 128.08 32.865L113.035 19.063C108.741 15.1236 102.034 15.4043 98.0829 19.6877C94.2061 23.8915 94.3977 30.5436 98.5101 34.5164L117.673 53.0287C123.648 58.8014 131.512 61.9805 139.817 61.9805H153.595C154.932 65.1483 158.068 67.3771 161.715 67.3771H178.446C180.409 67.3771 182 65.7847 182 63.8198V36.4173C182 34.4531 180.408 32.8607 178.445 32.8607Z" fill="#193554"/>
<path d="M114.759 120.988C113.951 119.197 111.85 118.399 110.063 119.207C108.263 119.992 107.439 122.088 108.223 123.889C108.806 125.228 110.112 126.027 111.484 126.027C111.957 126.027 112.439 125.931 112.901 125.73C112.916 125.723 112.963 125.702 112.977 125.696C114.766 124.887 115.567 122.778 114.759 120.988Z" fill="#193554"/>
<path d="M123.594 114.998C122.432 113.419 120.199 113.09 118.619 114.248C117.035 115.408 116.691 117.634 117.85 119.219C118.547 120.171 119.626 120.675 120.721 120.675C121.45 120.675 122.185 120.452 122.818 119.988C122.823 119.984 122.857 119.959 122.862 119.955C124.437 118.789 124.756 116.577 123.594 114.998Z" fill="#193554"/>
<path d="M104.823 124.981C104.418 123.065 102.539 121.839 100.623 122.235C98.7088 122.615 97.4576 124.471 97.8245 126.392C98.1501 128.096 99.6398 129.282 101.312 129.282C101.533 129.282 101.758 129.261 101.983 129.218C102.006 129.213 102.064 129.201 102.088 129.196C104.007 128.789 105.229 126.903 104.823 124.981Z" fill="#193554"/>
<path d="M131.018 107.261C129.56 105.946 127.313 106.061 125.998 107.52C125.981 107.54 125.94 107.586 125.923 107.606C124.64 109.093 124.806 111.34 126.292 112.623C126.964 113.203 127.79 113.487 128.612 113.487C129.599 113.487 130.581 113.078 131.282 112.279C132.591 110.82 132.473 108.575 131.018 107.261ZM129.033 110.261L128.638 109.903L129.066 110.289L129.033 110.261Z" fill="#193554"/>
<path d="M140.065 87.9839C138.187 87.4136 136.2 88.4863 135.63 90.3665C135.053 92.2442 136.106 94.2347 137.982 94.8125C138.33 94.9199 138.682 94.9708 139.028 94.9708C140.548 94.9708 141.954 93.9882 142.424 92.4588L142.439 92.41C143.008 90.5298 141.944 88.5539 140.065 87.9839Z" fill="#193554"/>
<path d="M144.619 69.6238C144.611 69.5786 144.602 69.5334 144.593 69.4882C144.192 67.5657 142.309 66.3358 140.389 66.7367C138.475 67.1359 137.245 69.0087 137.63 70.9234C137.956 72.6208 139.442 73.8087 141.116 73.8087C141.324 73.8087 141.535 73.7905 141.747 73.7525C143.679 73.4063 144.965 71.5577 144.619 69.6238Z" fill="#193554"/>
<path d="M141.358 77.3429C139.409 77.1707 137.678 78.6169 137.506 80.5736C137.503 80.6081 137.498 80.6782 137.496 80.7127C137.38 82.674 138.875 84.3575 140.835 84.4728C140.906 84.477 140.976 84.4792 141.047 84.4792C142.897 84.4792 144.452 83.0468 144.589 81.1816C144.751 79.232 143.308 77.515 141.358 77.3429Z" fill="#193554"/>
<path d="M136.587 98.1056C134.88 97.1376 132.71 97.7374 131.742 99.4469L131.693 99.5358C130.757 101.263 131.389 103.438 133.114 104.374C133.656 104.669 134.24 104.809 134.816 104.809C136.07 104.809 137.282 104.143 137.924 102.959L134.834 101.2L137.926 102.954C138.894 101.245 138.295 99.0744 136.587 98.1056Z" fill="#193554"/>
<path d="M72.1222 30.3592C71.2445 28.6017 69.1085 27.8891 67.3539 28.7682L67.3223 28.7839C65.5663 29.6626 64.8706 31.7912 65.7486 33.5483C66.3704 34.7931 67.6301 35.5097 68.9361 35.5097C69.4743 35.5097 70.0203 35.388 70.5325 35.1318C72.2886 34.2534 72.9999 32.1167 72.1222 30.3592Z" fill="#193554"/>
<path d="M82.4061 27.393C81.9436 25.4843 80.0248 24.311 78.1142 24.7742C78.0978 24.7781 78.0473 24.7909 78.031 24.7952C76.13 25.2854 74.9786 27.2268 75.4681 29.1291C75.8815 30.7343 77.3201 31.8013 78.9015 31.8013C79.1944 31.8013 79.4923 31.7646 79.7895 31.6881C81.6969 31.2253 82.8685 29.3024 82.4061 27.393Z" fill="#193554"/>
<path d="M62.7243 35.489C61.4951 33.9602 59.2571 33.7201 57.7278 34.9475L59.9314 37.7385L57.7172 34.9557C56.1815 36.1795 55.9281 38.4173 57.1505 39.9542C57.853 40.8365 58.8884 41.2958 59.9339 41.2958C60.7095 41.2958 61.4912 41.0425 62.1456 40.5213L62.1925 40.4836C63.7175 39.2508 63.9535 37.0177 62.7243 35.489Z" fill="#193554"/>
<path d="M43.7736 60.7985C41.8797 60.2819 39.926 61.3987 39.4095 63.2942C39.4007 63.3266 39.3836 63.3938 39.3754 63.4265C38.9133 65.3352 40.0849 67.2546 41.9917 67.7181C42.2732 67.7865 42.5547 67.8192 42.832 67.8192C44.4266 67.8192 45.8755 66.7362 46.2793 65.1221C46.7667 63.2408 45.653 61.3115 43.7736 60.7985Z" fill="#193554"/>
<path d="M41.5086 71.2504C39.544 71.1412 37.8683 72.6351 37.7545 74.596C37.7517 74.6419 37.7499 74.6875 37.7485 74.733C37.6909 76.6958 39.234 78.3312 41.1955 78.3899C41.2317 78.391 41.2673 78.3917 41.3032 78.3917C43.2085 78.3917 44.7829 76.8786 44.8532 74.9632C44.9421 73.0211 43.4534 71.3635 41.5086 71.2504Z" fill="#193554"/>
<path d="M48.2462 51.0771C46.5076 50.1642 44.3595 50.8348 43.4477 52.5745L43.3898 52.6891C42.5235 54.4512 43.25 56.5794 45.0103 57.4471C45.5144 57.6958 46.0486 57.8132 46.5758 57.8132C47.8811 57.8132 49.1377 57.0903 49.7604 55.8451C50.6456 54.1115 49.973 51.984 48.2462 51.0771Z" fill="#193554"/>
<path d="M54.6655 42.5183C53.1551 41.2635 50.9142 41.4716 49.6605 42.9829C49.6434 43.0039 49.6043 43.0523 49.5873 43.0733C48.3687 44.6127 48.6293 46.8462 50.1667 48.0665C50.8193 48.5848 51.5978 48.836 52.3713 48.836C53.4139 48.836 54.4476 48.3792 55.1496 47.5033C56.381 45.9923 56.1677 43.7667 54.6655 42.5183Z" fill="#193554"/>
<path d="M45.5254 84.8362C45.1796 82.9023 43.3315 81.6155 41.4002 81.962C39.4679 82.3085 38.1822 84.1567 38.528 86.0906L38.5344 86.1255C38.8423 87.8449 40.3342 89.0392 42.0194 89.0392C42.2295 89.0392 42.4424 89.0207 42.6564 88.9823C44.5888 88.6362 45.8716 86.7702 45.5254 84.8362Z" fill="#193554"/>
<path d="M103.204 57.8329C98.5774 57.8329 94.2908 59.7422 91.2363 62.9644C88.1814 59.7422 83.8951 57.8329 79.2687 57.8329C70.1677 57.8329 62.7636 65.2431 62.7636 74.3518C62.7636 79.2667 64.9295 83.8924 68.7053 87.043C68.728 87.0622 68.7515 87.0811 68.775 87.1L89.0299 103.149C89.6761 103.662 90.456 103.917 91.2359 103.917C92.0194 103.917 92.8028 103.659 93.4505 103.143L114.564 86.3112C114.667 86.229 114.765 86.1408 114.859 86.0476C117.987 82.9257 119.709 78.7722 119.709 74.3518C119.709 65.2431 112.305 57.8329 103.204 57.8329ZM109.968 80.8804L91.2299 95.8184L73.2254 81.5525C71.094 79.758 69.8723 77.1364 69.8723 74.3525C69.8719 69.1665 74.0874 64.9475 79.2687 64.9475C83.0833 64.9475 86.4918 67.2276 87.9528 70.7561C88.5034 72.0848 89.7991 72.9515 91.2363 72.9515C92.6734 72.9515 93.9691 72.0852 94.5197 70.7561C95.9807 67.2276 99.3893 64.9475 103.204 64.9475C108.385 64.9475 112.601 69.1665 112.601 74.3521C112.601 76.8076 111.667 79.1187 109.968 80.8804Z" fill="#193554"/>
<path d="M3.55427 132.757C5.5104 132.757 7.09616 131.17 7.09616 129.212C7.09616 127.254 5.5104 125.667 3.55427 125.667C1.59814 125.667 0.0123886 127.254 0.0123886 129.212C0.0123886 131.17 1.59814 132.757 3.55427 132.757Z" fill="#193554"/>
<path d="M178.445 28.3326C180.401 28.3326 181.987 26.7455 181.987 24.7877C181.987 22.83 180.401 21.2429 178.445 21.2429C176.489 21.2429 174.903 22.83 174.903 24.7877C174.903 26.7455 176.489 28.3326 178.445 28.3326Z" fill="#193554"/>
</svg>
