<svg width="102" height="102" viewBox="0 0 102 102" fill="none" xmlns="http://www.w3.org/2000/svg">
<g clip-path="url(#clip0_112_249)">
<path d="M16.6104 82.5547C17.7106 82.5547 18.6025 81.6628 18.6025 80.5625C18.6025 79.4622 17.7106 78.5703 16.6104 78.5703C15.5101 78.5703 14.6182 79.4622 14.6182 80.5625C14.6182 81.6628 15.5101 82.5547 16.6104 82.5547Z" fill="#193554"/>
<path d="M100.719 66.7727C98.9968 62.8722 94.4219 61.0997 90.5214 62.8218C90.5115 62.8261 90.5015 62.8307 90.4918 62.8351L77.6405 68.7617C76.6415 69.2225 76.205 70.406 76.6658 71.4051C77.1266 72.4044 78.3097 72.8403 79.3092 72.3801L92.1433 66.4613C94.0315 65.6357 96.2414 66.4954 97.0745 68.3824C97.4789 69.2986 97.5025 70.3172 97.1409 71.2507C96.7793 72.1842 96.0755 72.9213 95.1592 73.3258L68.8604 84.9374C64.6999 86.7746 59.9778 86.6678 55.9046 84.644L46.2777 79.8611C41.1417 77.3093 35.1864 77.1747 29.94 79.491L29.7739 79.5645L22.5996 63.3156L32.5649 58.9157C37.3173 56.8169 42.6207 56.6476 47.497 58.4385L66.8558 65.5479C68.6092 66.1917 69.5437 68.1535 68.9391 69.9207C68.3229 71.7215 66.3546 72.6903 64.5521 72.0806L49.5816 67.0169C48.5393 66.6641 47.4087 67.2235 47.0561 68.2658C46.7035 69.3081 47.2627 70.4387 48.305 70.7913L63.2753 75.8548C64.0622 76.121 64.8629 76.2473 65.6516 76.2473C68.7494 76.2473 71.653 74.297 72.7089 71.2105C74.0088 67.4106 71.9993 63.1925 68.2295 61.8079L48.8706 54.6986C43.0197 52.5498 36.6577 52.753 30.9556 55.2706L20.9226 59.7004C20.3546 58.8356 19.5382 58.1668 18.5543 57.7857C17.3066 57.302 15.9457 57.3335 14.7219 57.874L1.90635 63.5322C1.18638 63.8501 0.721 64.5621 0.718809 65.349L0.62159 100.002C0.619598 100.695 0.977993 101.339 1.56768 101.703C1.88723 101.9 2.2502 102 2.61398 102C2.92117 102 3.22897 101.929 3.51225 101.786L28.5821 89.1212C29.78 88.5762 30.6998 87.602 31.1762 86.3726C31.5704 85.3556 31.6222 84.2629 31.3349 83.2307L31.5493 83.1361C35.71 81.2989 40.4319 81.4059 44.5051 83.4297L54.1319 88.2126C59.2684 90.7644 65.2232 90.8987 70.4697 88.5825L96.7685 76.9709C100.669 75.2484 102.442 70.6736 100.719 66.7727ZM27.4607 84.9332C27.3619 85.1882 27.1697 85.3895 26.9195 85.5C26.8878 85.514 4.61513 96.7646 4.61513 96.7646L4.63923 88.1996L10.4098 85.3659C11.3975 84.8809 11.8049 83.6871 11.3198 82.6996C10.8349 81.7117 9.64102 81.3045 8.65349 81.7894L4.65159 83.7545L4.6996 66.6545L16.3312 61.5189C16.5814 61.4087 16.8597 61.4019 17.1147 61.5007C17.3699 61.5995 17.5713 61.792 17.6817 62.0422L27.4428 84.1497C27.5532 84.3997 27.5596 84.6782 27.4607 84.9332Z" fill="#193554"/>
<path d="M73.0204 0C58.1013 0 45.9639 12.1376 45.9639 27.0565C45.9639 41.9754 58.1015 54.1132 73.0204 54.1132C87.9395 54.1132 100.077 41.9756 100.077 27.0567C100.077 12.1378 87.9395 0 73.0204 0ZM73.0204 50.1286C60.2983 50.1286 49.9482 39.7784 49.9482 27.0565C49.9482 14.3346 60.2983 3.98438 73.0204 3.98438C85.7423 3.98438 96.0925 14.3346 96.0925 27.0565C96.0925 39.7784 85.7423 50.1286 73.0204 50.1286Z" fill="#193554"/>
<path d="M71.2207 20.0791V26.7568H73.8867C75.097 26.7568 76.0153 26.4606 76.6416 25.8682C77.2764 25.2757 77.5938 24.4548 77.5938 23.4053C77.5938 22.3643 77.2806 21.5518 76.6543 20.9678C76.028 20.3753 75.1097 20.0791 73.8994 20.0791H71.2207ZM76.3877 33.2441H71.2207V35.999H68.377V33.2441H65.9268V31.2891H68.377V29.0547H65.9268V26.7695H68.377V17.6797H74.6865C76.43 17.6797 77.835 18.2171 78.9014 19.292C79.9678 20.3584 80.501 21.7253 80.501 23.3926C80.501 25.0514 79.9551 26.4141 78.8633 27.4805C77.7799 28.5384 76.3581 29.0674 74.5977 29.0674H71.2207V31.2891H76.3877V33.2441Z" fill="#193554"/>
</g>
<defs>
<clipPath id="clip0_112_249">
<rect width="102" height="102" fill="white"/>
</clipPath>
</defs>
</svg>
