<svg width="48" height="22" viewBox="0 0 48 22" fill="none" xmlns="http://www.w3.org/2000/svg">
<path d="M37.2 0C34.32 0 31.6 1.14608 29.65 3.14142L24 8.25765L23.99 8.24739L20.96 10.9795L20.9799 10.9999L15.59 15.8911C14.31 17.1906 12.61 17.907 10.8 17.907C7.06003 17.907 4.02 14.8065 4.02 11C4.02 7.1935 7.06003 4.09304 10.8 4.09304C12.61 4.09304 14.31 4.80935 15.68 6.20091L17.9499 8.25765L20.9699 5.52557L18.4399 3.23351C16.3999 1.15634 13.6898 0.0102655 10.7999 0.0102655C4.84003 9.48452e-07 0 4.93214 0 11C0 17.0679 4.84003 22 10.8 22C13.68 22 16.39 20.8539 18.35 18.8688L24 13.7424L24.01 13.7526L27.03 11.0103L27.02 11L32.4099 6.11908C33.69 4.80935 35.39 4.09304 37.2 4.09304C40.94 4.09304 43.98 7.1935 43.98 11C43.98 14.8065 40.94 17.907 37.2 17.907C35.39 17.907 33.69 17.1906 32.32 15.8093L30.0501 13.7525L27.03 16.4949L29.56 18.7869C31.6 20.8641 34.3101 21.9999 37.1901 21.9999C43.16 22 48 17.0679 48 11C48 4.93214 43.16 0 37.2 0Z" fill="#0D1C41"/>
</svg>
