<svg width="182" height="184" viewBox="0 0 182 184" fill="none" xmlns="http://www.w3.org/2000/svg">
<path d="M181.012 10.746C180.967 8.94664 180.695 6.9575 179.025 5.84703C177.115 4.57916 174.914 5.43662 172.785 6.26822C167.673 8.26275 162.498 9.55901 156.501 10.3482C155.025 10.5423 153.986 11.896 154.18 13.372C154.374 14.8476 155.728 15.8876 157.204 15.6925C163.643 14.8458 169.217 13.4467 174.745 11.2901C174.942 11.2132 175.277 11.0828 175.626 10.9552C175.732 15.4208 174.556 18.8772 172.03 21.5201C167.955 25.7844 160.148 28.0542 148.824 28.2659C147.336 28.2939 146.152 29.523 146.18 31.0115C146.207 32.4828 147.408 33.6562 148.874 33.6562C148.891 33.6562 148.908 33.6562 148.925 33.6558C155.268 33.5372 160.616 32.8188 165.035 31.4866C165.111 35.1415 164.21 38.0535 162.301 40.3219C161.014 41.8514 159.232 43.1178 156.969 44.1201C156.947 44.1298 156.925 44.1384 156.905 44.1489C152.974 45.8739 147.6 46.8071 140.828 46.9311C139.339 46.9584 138.155 48.1871 138.182 49.6757C138.209 51.1473 139.411 52.3214 140.876 52.3214C140.893 52.3214 140.91 52.3214 140.927 52.321C146.682 52.2157 151.551 51.5678 155.586 50.3657C155.395 52.9489 154.476 55.3175 152.832 57.4357C149.235 62.0698 142.77 64.7022 137.716 65.3433C137.104 64.2113 136.413 63.098 135.646 62.0137C132.19 57.1151 126.874 52.9269 121.421 50.8088C115.461 48.5045 110.51 48.9548 107.832 52.0454C105.345 54.9287 105.457 59.7583 106.531 63.8027C104.275 63.443 101.981 63.03 99.6644 62.5697V41.593C108.036 40.1192 115.266 35.5641 120.21 28.589L120.32 28.4348C127.125 18.9861 134.753 17.6705 144.786 16.8435C146.269 16.7214 147.373 15.4193 147.25 13.9358C147.128 12.4523 145.83 11.3462 144.343 11.4712C133.612 12.3557 124.069 14.0056 115.946 25.2842L115.812 25.4718C111.89 31.0054 106.231 34.707 99.6641 36.101V28.796C103.903 25.9799 106.705 21.1622 106.705 15.7C106.705 7.04303 99.6616 0 91.0049 0C82.3429 0 75.2952 7.04303 75.2952 15.7C75.2952 21.16 78.0965 25.9763 82.3361 28.7928V36.1014C75.7944 34.7088 70.1404 31.0133 66.2009 25.4887L66.0561 25.2863C57.186 12.9673 46.8687 12.1763 34.9223 11.2603C27.3952 10.6831 18.8637 10.0287 9.22522 6.26858C7.09448 5.43698 4.89115 4.577 2.9782 5.84811C1.30531 6.96001 1.03326 8.94772 0.987623 10.7417C0.829139 16.6678 2.5394 21.547 6.07206 25.2439C7.61558 26.8593 9.4872 28.2357 11.6945 29.3814C11.1673 35.2522 12.4675 40.0969 15.5822 43.797C17.029 45.5156 18.8367 46.9692 21.0192 48.1634C20.7486 52.8166 22.097 57.164 24.9702 60.8375C29.4221 66.5304 36.5165 69.4747 42.0908 70.4724C40.6666 74.9218 40.442 79.4186 41.5521 83.3847C43.3195 89.6996 48.1286 94.5979 55.8441 97.9423L69.85 104.021C65.5364 106.311 61.9067 108.805 59.0252 111.472C57.9327 112.483 57.8663 114.189 58.8775 115.281C59.4091 115.855 60.1314 116.146 60.8566 116.146C61.5114 116.146 62.168 115.908 62.6866 115.429C66.0492 112.317 70.6377 109.429 76.3353 106.836L84.2282 110.261L78.2173 112.871C68.9505 116.889 64.5898 121.168 64.8863 125.952C65.1756 130.623 69.9704 134.453 78.7517 137.029L84.2171 138.634C84.2289 138.638 84.2415 138.641 84.2534 138.645L111.198 146.559C119.943 149.123 125.285 154.375 125.853 160.967C126.295 166.101 123.633 171.007 119.227 173.174C114.834 175.336 111.996 175.305 111.238 175.021C111.264 174.651 111.49 173.516 113.085 171.296C116.569 166.464 117.672 162.384 116.456 158.824C115.299 155.436 112.114 152.949 106.991 151.432L74.244 141.721C73.5796 141.524 72.1097 141.032 72.0095 141.004C61.4726 137.366 55.82 131.481 56.7924 125.012C57.0135 123.54 55.9997 122.167 54.5277 121.946C53.0485 121.727 51.6828 122.739 51.4615 124.211C50.3118 131.86 54.8842 138.696 63.9537 143.417C56.2146 147.126 51.3997 153.254 50.7747 160.504C50.1426 167.835 54.0073 174.87 60.3912 178.011C63.3349 179.459 66.7443 180.553 69.6692 180.553C71.8204 180.552 73.7107 179.961 74.961 178.484C76.3813 176.807 77.2441 173.652 73.2863 168.143C70.9321 164.879 70.0437 162.33 70.6453 160.569C71.3432 158.526 74.2408 157.283 76.5502 156.599L82.3357 154.884V175.33C82.3357 180.11 86.2245 183.999 91.0046 183.999C95.7789 183.999 99.663 180.11 99.663 175.33V154.881L105.459 156.6C107.764 157.282 110.658 158.524 111.355 160.566C111.957 162.328 111.067 164.877 108.71 168.147C104.755 173.652 105.618 176.807 107.038 178.485C108.288 179.962 110.178 180.553 112.33 180.553C115.255 180.553 118.664 179.46 121.608 178.011C127.991 174.871 131.856 167.836 131.224 160.504C130.598 153.237 125.762 147.097 117.991 143.391C125.677 139.302 130.105 133.542 130.371 127.02C130.712 118.663 124.259 110.441 112.449 103.895L126.164 97.9426C133.876 94.5979 138.682 89.7007 140.448 83.3868C141.559 79.4158 141.333 74.9131 139.905 70.4598C145.523 69.4269 152.665 66.442 157.09 60.7416C159.92 57.095 161.247 52.7818 160.98 48.1659C163.166 46.9703 164.977 45.5141 166.426 43.7924C169.538 40.0919 170.836 35.2486 170.306 29.3811C172.513 28.2357 174.384 26.8593 175.927 25.2443C179.46 21.5474 181.171 16.6682 181.012 10.746ZM75.0199 151.432C69.8906 152.949 66.7026 155.437 65.5447 158.827C64.3285 162.387 65.4311 166.466 68.912 171.293C70.5091 173.516 70.7351 174.651 70.761 175.022C70.0034 175.305 67.1658 175.336 62.7717 173.175C58.3665 171.007 55.7039 166.101 56.1463 160.967C56.7145 154.375 62.0562 149.123 70.8138 146.555L71.2368 146.429C71.7212 146.587 81.525 149.502 81.525 149.502L75.0199 151.432ZM94.2727 175.331C94.2727 177.139 92.8069 178.609 91.0049 178.609C89.1973 178.609 87.7267 177.139 87.7267 175.331V153.287L91.006 152.315L94.2727 153.283V175.331ZM109.142 69.6443C110.528 71.5627 112.818 73.6891 116.545 74.9462C120.337 76.2256 121.379 77.4863 121.401 77.9747C121.452 79.1326 118.663 82.0158 112.305 84.8021L99.6634 90.3436V68.0696C102.881 68.6909 106.053 69.2156 109.142 69.6443ZM91.0049 5.39062C96.6892 5.39062 101.314 10.0154 101.314 15.7C101.314 21.39 96.6895 26.0195 91.0049 26.0195C85.315 26.0195 80.6859 21.39 80.6859 15.7C80.6859 10.0154 85.315 5.39062 91.0049 5.39062ZM91.0049 31.4097C92.1255 31.4097 93.218 31.2893 94.2727 31.0651V39.2455V39.256V64.7565V64.7745V92.7069L90.9985 94.1422L87.7267 92.708V64.7701C87.7267 64.7648 87.7267 64.7594 87.7267 64.754V39.256C87.7267 39.2524 87.7267 39.2491 87.7267 39.2455V31.0633C88.7847 31.2886 89.8808 31.4097 91.0049 31.4097ZM72.8579 69.6436C75.9816 69.2106 79.1538 68.6877 82.3361 68.0721V90.3447L69.6951 84.8028C63.3413 82.0155 60.5551 79.1311 60.6061 77.9732C60.6277 77.4855 61.6688 76.2252 65.4523 74.9473C69.1765 73.6949 71.4672 71.5684 72.8579 69.6436ZM29.2169 57.5169C27.5415 55.3746 26.6067 52.9787 26.4148 50.3653C30.4495 51.5681 35.3191 52.2161 41.0745 52.3218C41.0914 52.3221 41.1082 52.3221 41.1251 52.3221C42.5907 52.3221 43.7921 51.1473 43.819 49.6764C43.846 48.1879 42.6618 46.9592 41.1737 46.9319C30.4542 46.7356 23.2319 44.5133 19.7075 40.3262C17.7977 38.0571 16.895 35.1444 16.9687 31.4877C21.3865 32.8196 26.7343 33.5372 33.0755 33.6562C33.0927 33.6565 33.11 33.6565 33.1272 33.6565C34.5924 33.6565 35.7934 32.4825 35.8211 31.0119C35.8488 29.5234 34.6646 28.2943 33.1768 28.2663C21.8529 28.0546 14.0455 25.7852 9.97056 21.5204C7.44523 18.8776 6.269 15.4208 6.37573 10.952C6.72828 11.0802 7.06753 11.2129 7.26662 11.2905C17.6515 15.3424 26.6078 16.0292 34.5098 16.6351C45.9846 17.5149 54.275 18.1506 61.6893 28.4474L61.8118 28.6185C66.7744 35.5778 73.9972 40.1224 82.3361 41.5937V62.5726C80.039 63.0304 77.7462 63.4426 75.4702 63.8045C76.5444 59.763 76.6576 54.9315 74.1693 52.0476C71.5002 48.9512 66.5495 48.5005 60.5871 50.8106C55.1321 52.9255 49.8116 57.114 46.3544 62.0148C45.5861 63.1005 44.895 64.2156 44.2826 65.3491C39.2801 64.7518 32.8462 62.1578 29.2169 57.5169ZM94.2727 114.621V134.049L91.0028 135.01L87.7267 134.048V114.62L90.9974 113.2L94.2727 114.621ZM101.637 117.818C109.233 121.111 111.833 124.007 111.733 125.62C111.629 127.295 108.495 129.873 101.728 131.858L99.6634 132.465V116.961L101.637 117.818ZM70.2668 125.62C70.1673 124.007 72.7667 121.111 80.3635 117.817L82.3361 116.961V132.464L80.2704 131.858C73.5041 129.873 70.3707 127.294 70.2668 125.62ZM124.985 126.8C124.753 132.459 119.537 137.522 110.63 140.769L100.571 137.816L103.247 137.03C112.029 134.454 116.824 130.623 117.113 125.953C117.409 121.168 113.049 116.889 103.783 112.872L57.9895 92.9969C51.8359 90.3296 48.0521 86.6068 46.7436 81.9321C45.3449 76.9343 46.8453 70.6513 50.7571 65.1252C50.7582 65.1241 50.7589 65.1227 50.76 65.1216C53.6292 61.0538 58.0312 57.5826 62.5356 55.8364C65.9716 54.5053 69.0766 54.3943 70.0875 55.5676C71.3867 57.0734 70.8275 62.3548 69.0241 65.6481C68.2774 66.999 66.7532 68.8221 63.7313 69.8384C58.2328 71.6946 55.3693 74.3522 55.2209 77.736C54.9859 83.09 61.7849 87.2185 67.5302 89.7388L103.924 105.695C117.41 111.604 125.283 119.494 124.985 126.8ZM135.257 81.9346C133.95 86.6086 130.169 90.3303 124.019 92.9976L106.112 100.769C106.104 100.765 106.097 100.762 106.089 100.758L97.7112 97.0851L114.469 89.7392C120.217 87.2203 127.021 83.0936 126.786 77.7382C126.637 74.3529 123.771 71.6953 118.267 69.8384C115.245 68.8189 113.721 66.9972 112.981 65.6585C111.173 62.3548 110.613 57.0734 111.909 55.5719C112.941 54.3806 115.982 54.487 119.472 55.8361C123.972 57.5837 128.371 61.0553 131.243 65.1256C135.155 70.6524 136.656 76.9361 135.257 81.9346Z" fill="#193554"/>
</svg>
