<svg width="23" height="23" viewBox="0 0 23 23" fill="none" xmlns="http://www.w3.org/2000/svg">
<g clip-path="url(#clip0_2753_2461)">
<path d="M20.8544 2.14633L18.8543 0.146255C18.6593 -0.0487516 18.3422 -0.0487516 18.1472 0.146255C17.9522 0.341261 17.9522 0.658287 18.1472 0.853293L19.7933 2.49936L18.1463 4.14641C17.9512 4.34142 17.9512 4.65845 18.1463 4.85345C18.2443 4.95044 18.3722 4.99947 18.5003 4.99947C18.6283 4.99947 18.7563 4.95049 18.8543 4.85345L20.8544 2.85337C21.0494 2.65832 21.0494 2.34134 20.8544 2.14633Z" fill="#193554"/>
<path d="M20.5002 2H14.5C14.224 2 14 2.22402 14 2.50003C14 2.77604 14.224 3.00006 14.5 3.00006H20.5002C20.7762 3.00006 21.0003 2.77604 21.0003 2.50003C21.0003 2.22402 20.7762 2 20.5002 2Z" fill="#193554"/>
<path d="M2.20677 2.49936L3.85284 0.853293C4.04784 0.658287 4.04784 0.341261 3.85284 0.146255C3.65783 -0.0487516 3.3408 -0.0487516 3.1458 0.146255L1.14577 2.14638C0.95076 2.34139 0.95076 2.65841 1.14577 2.85342L3.14585 4.8535C3.24386 4.95049 3.37184 4.99952 3.49986 4.99952C3.62788 4.99952 3.75585 4.95053 3.85288 4.85251C4.04789 4.65751 4.04789 4.34048 3.85288 4.14548L2.20677 2.49936Z" fill="#193554"/>
<path d="M7.49974 2H1.49954C1.22353 2 0.999512 2.22402 0.999512 2.50003C0.999512 2.77604 1.22353 3.00006 1.49954 3.00006H7.49974C7.77574 3.00006 7.99977 2.77604 7.99977 2.50003C7.99977 2.22402 7.77574 2 7.49974 2Z" fill="#193554"/>
<path d="M20.0003 10.0002C19.5893 10.0002 19.2063 10.1252 18.8883 10.3382C18.6143 9.56023 17.8712 9.00019 17.0002 9.00019C16.5892 9.00019 16.2062 9.12521 15.8882 9.33822C15.6142 8.56021 14.8711 8.00018 14.0001 8.00018C13.6361 8.00018 13.2941 8.09819 13.0001 8.2692V5.00008C13.0001 3.89703 12.1031 3 11 3C9.89699 3 8.99996 3.89703 8.99996 5.00008V13.5003L7.26192 12.1973C6.2319 11.4243 4.76584 11.5273 3.85283 12.4393C3.26781 13.0244 3.26781 13.9754 3.85283 14.5604L10.9741 21.6826C11.8241 22.5326 12.9551 23.0007 14.1572 23.0007H16.5002C19.5324 23.0007 22.0004 20.5336 22.0004 17.5005V12.0003C22.0004 10.8972 21.1034 10.0002 20.0003 10.0002ZM21.0004 17.5004C21.0004 19.9815 18.9813 22.0006 16.5002 22.0006H14.1572C13.2211 22.0006 12.3421 21.6366 11.6811 20.9755L4.55986 13.8534C4.36486 13.6584 4.36486 13.3413 4.55986 13.1463C4.86986 12.8373 5.28387 12.6783 5.6999 12.6783C6.03793 12.6783 6.37792 12.7833 6.66293 12.9973L9.20003 14.9003C9.35205 15.0144 9.55606 15.0314 9.72406 14.9474C9.89305 14.8624 10.0001 14.6894 10.0001 14.5004V5.00008C10.0001 4.44905 10.4481 4.00006 11.0001 4.00006C11.5521 4.00006 12.0001 4.44909 12.0001 5.00008V12.5003C12.0001 12.7763 12.2241 13.0003 12.5001 13.0003C12.7761 13.0003 13.0002 12.7763 13.0002 12.5003V10.0003C13.0002 9.44922 13.4482 9.00024 14.0002 9.00024C14.5522 9.00024 15.0002 9.44927 15.0002 10.0003V12.5003C15.0002 12.7763 15.2242 13.0003 15.5002 13.0003C15.7762 13.0003 16.0003 12.7763 16.0003 12.5003V11.0003C16.0003 10.4492 16.4483 10.0003 17.0003 10.0003C17.5523 10.0003 18.0003 10.4493 18.0003 11.0003V12.5003C18.0003 12.7763 18.2243 13.0003 18.5003 13.0003C18.7763 13.0003 19.0004 12.7763 19.0004 12.5003V12.0003C19.0004 11.4493 19.4484 11.0003 20.0004 11.0003C20.5524 11.0003 21.0004 11.4493 21.0004 12.0003V17.5004V17.5004Z" fill="#193554"/>
</g>
<defs>
<clipPath id="clip0_2753_2461">
<rect width="23" height="23" fill="white"/>
</clipPath>
</defs>
</svg>
