<svg xmlns="http://www.w3.org/2000/svg" width="54" height="60" viewBox="0 0 54 60" fill="none">
  <path d="M44.4486 7.41C44.2085 7.41 43.9685 7.35 43.7584 7.23C37.9972 4.26 33.0162 3 27.045 3C21.1038 3 15.4626 4.41 10.3316 7.23C9.61144 7.62 8.71126 7.35 8.29117 6.63C7.90109 5.91 8.17115 4.98 8.8913 4.59C14.4724 1.56 20.5937 0 27.045 0C33.4363 0 39.0175 1.41 45.1387 4.56C45.8889 4.95 46.1589 5.85 45.7688 6.57C45.4988 7.11 44.9887 7.41 44.4486 7.41ZM1.50979 23.16C1.20972 23.16 0.909663 23.07 0.639607 22.89C-0.0505338 22.41 -0.200565 21.48 0.279533 20.79C3.25014 16.59 7.03092 13.29 11.5318 10.98C20.9538 6.12 33.0162 6.09 42.4682 10.95C46.9691 13.26 50.7499 16.53 53.7205 20.7C54.2006 21.36 54.0505 22.32 53.3604 22.8C52.6703 23.28 51.7401 23.13 51.26 22.44C48.5594 18.66 45.1387 15.69 41.0879 13.62C32.4761 9.21 21.4639 9.21 12.8821 13.65C8.80128 15.75 5.38058 18.75 2.68003 22.53C2.43998 22.95 1.98988 23.16 1.50979 23.16ZM20.2636 59.37C19.8735 59.37 19.4835 59.22 19.2134 58.92C16.6029 56.31 15.1926 54.63 13.1822 51C11.1118 47.31 10.0315 42.81 10.0315 37.98C10.0315 29.07 17.6531 21.81 27.015 21.81C36.3769 21.81 43.9985 29.07 43.9985 37.98C43.9985 38.82 43.3383 39.48 42.4982 39.48C41.658 39.48 40.9979 38.82 40.9979 37.98C40.9979 30.72 34.7266 24.81 27.015 24.81C19.3034 24.81 13.0321 30.72 13.0321 37.98C13.0321 42.3 13.9923 46.29 15.8227 49.53C17.7431 52.98 19.0634 54.45 21.3738 56.79C21.944 57.39 21.944 58.32 21.3738 58.92C21.0438 59.22 20.6537 59.37 20.2636 59.37ZM41.778 53.82C38.2073 53.82 35.0566 52.92 32.4761 51.15C28.0052 48.12 25.3347 43.2 25.3347 37.98C25.3347 37.14 25.9948 36.48 26.835 36.48C27.6751 36.48 28.3353 37.14 28.3353 37.98C28.3353 42.21 30.4957 46.2 34.1565 48.66C36.2869 50.1 38.7774 50.79 41.778 50.79C42.4982 50.79 43.6984 50.7 44.8987 50.49C45.7088 50.34 46.489 50.88 46.639 51.72C46.7891 52.53 46.2489 53.31 45.4088 53.46C43.6984 53.79 42.1981 53.82 41.778 53.82ZM35.7468 60C35.6268 60 35.4767 59.97 35.3567 59.94C30.5857 58.62 27.4651 56.85 24.1944 53.64C19.9936 49.47 17.6831 43.92 17.6831 37.98C17.6831 33.12 21.8239 29.16 26.925 29.16C32.026 29.16 36.1669 33.12 36.1669 37.98C36.1669 41.19 38.9574 43.8 42.4081 43.8C45.8589 43.8 48.6494 41.19 48.6494 37.98C48.6494 26.67 38.8974 17.49 26.895 17.49C18.3732 17.49 10.5716 22.23 7.06092 29.58C5.89068 32.01 5.29056 34.86 5.29056 37.98C5.29056 40.32 5.5006 44.01 7.30097 48.81C7.60103 49.59 7.21095 50.46 6.43079 50.73C5.65063 51.03 4.78045 50.61 4.5104 49.86C3.0401 45.93 2.31995 42.03 2.31995 37.98C2.31995 34.38 3.01009 31.11 4.36037 28.26C8.35118 19.89 17.203 14.46 26.895 14.46C40.5478 14.46 51.65 24.99 51.65 37.95C51.65 42.81 47.5092 46.77 42.4081 46.77C37.3071 46.77 33.1663 42.81 33.1663 37.95C33.1663 34.74 30.3757 32.13 26.925 32.13C23.4743 32.13 20.6837 34.74 20.6837 37.95C20.6837 43.08 22.6641 47.88 26.2949 51.48C29.1454 54.3 31.876 55.86 36.1069 57.03C36.917 57.24 37.3671 58.08 37.1571 58.86C37.007 59.55 36.3769 60 35.7468 60Z" fill="#0D1C41"/>
</svg>