<svg xmlns="http://www.w3.org/2000/svg" width="55" height="60" viewBox="0 0 55 60" fill="none">
  <path d="M55 13.75V50C55 55.5 50.5 60 45 60H26.75C24.05 60 21.5 58.925 19.625 57.025L0 37.075C0 37.075 3.15 34 3.25 33.95C3.8 33.475 4.475 33.225 5.225 33.225C5.775 33.225 6.275 33.375 6.725 33.625C6.825 33.65 17.5 39.775 17.5 39.775V10C17.5 7.925 19.175 6.25 21.25 6.25C23.325 6.25 25 7.925 25 10V27.5H27.5V3.75C27.5 1.675 29.175 0 31.25 0C33.325 0 35 1.675 35 3.75V27.5H37.5V6.25C37.5 4.175 39.175 2.5 41.25 2.5C43.325 2.5 45 4.175 45 6.25V27.5H47.5V13.75C47.5 11.675 49.175 10 51.25 10C53.325 10 55 11.675 55 13.75Z" fill="#0D1C41"/>
</svg>