<svg xmlns="http://www.w3.org/2000/svg" width="48" height="60" viewBox="0 0 48 60" fill="none">
  <path d="M48 52.77V18L30 0H6C2.7 0 0.0300007 2.7 0.0300007 6L0 54C0 57.3 2.67 60 5.97 60H42C43.35 60 44.55 59.55 45.57 58.8L32.28 45.51C29.88 47.07 27.06 48 24 48C15.72 48 9 41.28 9 33C9 24.72 15.72 18 24 18C32.28 18 39 24.72 39 33C39 36.06 38.07 38.88 36.51 41.25L48 52.77ZM15 33C15 37.98 19.02 42 24 42C28.98 42 33 37.98 33 33C33 28.02 28.98 24 24 24C19.02 24 15 28.02 15 33Z" fill="#0D1C41"/>
</svg>