<svg width="21" height="13" viewBox="0 0 21 13" fill="none" xmlns="http://www.w3.org/2000/svg">
<path d="M20.806 11.1162C20.806 11.0332 20.723 11.0332 20.723 10.9502C20.3909 10.286 19.6437 9.45578 18.6474 8.54253C18.1493 8.12741 17.9002 7.79532 17.7342 7.62927C17.4851 7.29718 17.4851 7.04812 17.5681 6.71603C17.6512 6.46696 17.9832 6.05183 18.5644 5.30463C18.8965 4.88951 19.0625 4.64045 19.3116 4.39138C20.5569 2.73092 21.1381 1.65162 20.972 1.15348L20.889 1.07046C20.806 0.987441 20.723 0.90442 20.5569 0.90442C20.3909 0.821397 20.1418 0.821397 19.8928 0.90442H16.7379C16.6549 0.90442 16.6549 0.90442 16.4888 0.90442C16.4058 0.90442 16.3228 0.90442 16.3228 0.90442H16.2398H16.1567L16.0737 0.987436C15.9907 1.07046 15.9907 1.07046 15.9907 1.15348C15.6586 2.06673 15.2435 2.81394 14.8284 3.64417C14.5793 4.05928 14.3302 4.4744 14.0812 4.8065C13.8321 5.13859 13.666 5.38765 13.5 5.5537C13.3339 5.71974 13.1679 5.80277 13.0849 5.96881C13.0018 6.05183 12.8358 6.13486 12.8358 6.05184C12.7528 6.05184 12.6698 6.05183 12.6698 5.96881C12.5867 5.88579 12.5037 5.80276 12.4207 5.71974C12.3377 5.63672 12.3377 5.47067 12.2546 5.30463C12.2546 5.13858 12.2546 4.97253 12.2546 4.88951C12.2546 4.80649 12.2546 4.55743 12.2546 4.39138C12.2546 4.14231 12.2546 3.97626 12.2546 3.89324C12.2546 3.64417 12.2546 3.31209 12.2546 2.97999C12.2546 2.6479 12.2546 2.39883 12.2546 2.23278C12.2546 2.06673 12.2546 1.81767 12.2546 1.65162C12.2546 1.40255 12.2546 1.2365 12.2546 1.15348C12.2546 1.07046 12.1716 0.904415 12.1716 0.821392C12.0886 0.738369 12.0056 0.655344 11.9226 0.572321C11.8395 0.489298 11.6735 0.489301 11.5905 0.406278C11.1754 0.323255 10.6772 0.240234 10.0961 0.240234C8.7677 0.240234 7.85444 0.32326 7.52235 0.489306C7.3563 0.572329 7.19026 0.655346 7.10723 0.821392C6.94119 0.987438 6.94118 1.07046 7.02421 1.07046C7.43932 1.15349 7.77142 1.31952 7.93746 1.56859L8.02049 1.73465C8.10351 1.81767 8.1035 1.98371 8.18652 2.23278C8.26955 2.48185 8.26955 2.73092 8.26955 3.06301C8.26955 3.56115 8.26955 4.05929 8.26955 4.39138C8.26955 4.8065 8.18652 5.05556 8.18652 5.30463C8.18652 5.55369 8.10351 5.71975 8.02049 5.80277C7.93747 5.96881 7.93746 6.05184 7.85444 6.05184C7.85444 6.05184 7.85443 6.13485 7.77141 6.13485C7.68838 6.13485 7.60537 6.21788 7.43932 6.21788C7.3563 6.21788 7.19026 6.13486 7.10723 6.05184C6.94119 5.96882 6.77514 5.80277 6.69212 5.63672C6.52607 5.47068 6.36002 5.2216 6.19398 4.88951C6.02793 4.55742 5.77885 4.22533 5.61281 3.72719L5.44678 3.39511C5.36375 3.22906 5.19771 2.89697 5.03166 2.48185C4.86562 2.06674 4.69956 1.73465 4.53352 1.31954C4.4505 1.15349 4.36748 1.07046 4.28446 0.987436H4.20143C4.20143 0.987436 4.1184 0.90442 4.03538 0.90442C3.95235 0.90442 3.86934 0.821392 3.78632 0.821392H0.797487C0.465395 0.821392 0.299352 0.904413 0.216329 0.987436L0.133301 1.07046C0.133301 1.07046 0.133301 1.15348 0.133301 1.23651C0.133301 1.31953 0.133306 1.40255 0.216329 1.56859C0.631443 2.56487 1.12958 3.56115 1.62772 4.55742C2.12585 5.47068 2.624 6.30091 2.95609 6.88207C3.3712 7.46323 3.70329 8.04439 4.1184 8.54253C4.53352 9.04066 4.78258 9.37275 4.86561 9.5388C5.03165 9.70485 5.11467 9.78786 5.19769 9.87089L5.44678 10.12C5.61282 10.286 5.86189 10.5351 6.19398 10.7841C6.52607 11.0332 6.94118 11.2823 7.35629 11.5313C7.77141 11.7804 8.26956 11.9465 8.76769 12.1125C9.34885 12.2786 9.84699 12.3616 10.3451 12.2786H11.5905C11.8395 12.2786 12.0056 12.1955 12.1716 12.0295L12.2546 11.9465C12.2546 11.8634 12.3377 11.8634 12.3377 11.7804C12.3377 11.6974 12.3377 11.6144 12.3377 11.4483C12.3377 11.1162 12.3377 10.8672 12.4207 10.6181C12.5037 10.369 12.5037 10.203 12.5868 10.0369C12.6698 9.8709 12.7528 9.78787 12.8358 9.70484C12.9188 9.62182 13.0019 9.5388 13.0019 9.5388H13.0849C13.2509 9.45578 13.5 9.5388 13.666 9.70484C13.9151 9.87089 14.1642 10.12 14.3302 10.369C14.4963 10.6181 14.7453 10.8672 15.0774 11.1993C15.4095 11.5314 15.6586 11.7804 15.8246 11.8634L16.0737 12.0295C16.2397 12.1125 16.4058 12.1955 16.6549 12.2786C16.9039 12.3616 17.07 12.3616 17.236 12.3616L20.0588 12.2786C20.3079 12.2786 20.5569 12.1955 20.723 12.1125C20.889 12.0295 20.972 11.9465 20.972 11.7804C20.972 11.6974 20.972 11.5314 20.972 11.4483C20.806 11.2823 20.806 11.1993 20.806 11.1162Z" fill="#A89060"/>
</svg>
