<svg width="30" height="30" viewBox="0 0 30 30" fill="none" xmlns="http://www.w3.org/2000/svg">
<path d="M14.9997 0.833984C7.17967 0.833984 0.833008 7.18065 0.833008 15.0007C0.833008 22.8207 7.17967 29.1673 14.9997 29.1673C22.8197 29.1673 29.1663 22.8207 29.1663 15.0007C29.1663 7.18065 22.8197 0.833984 14.9997 0.833984ZM14.9997 5.08398C17.3513 5.08398 19.2497 6.98232 19.2497 9.33398C19.2497 11.6857 17.3513 13.584 14.9997 13.584C12.648 13.584 10.7497 11.6857 10.7497 9.33398C10.7497 6.98232 12.648 5.08398 14.9997 5.08398ZM14.9997 25.2007C11.458 25.2007 8.32717 23.3873 6.49967 20.639C6.54217 17.8198 12.1663 16.2757 14.9997 16.2757C17.8188 16.2757 23.4572 17.8198 23.4997 20.639C21.6722 23.3873 18.5413 25.2007 14.9997 25.2007Z" fill="#193554"/>
</svg>
