<svg width="53" height="58" viewBox="0 0 53 58" fill="none" xmlns="http://www.w3.org/2000/svg">
<path d="M26.5 6.44444V0L42.1922 15.3333C42.449 15.5841 42.4511 15.9958 42.1969 16.2492L39.8781 18.5612C39.628 18.8106 39.2232 18.8131 38.9699 18.5669L26.5 6.44444Z" fill="#313C48"/>
<path d="M26.5004 6.44444V0L10.8082 15.3333C10.5514 15.5841 10.5494 15.9958 10.8036 16.2492L13.1223 18.5612C13.3724 18.8106 13.7773 18.8131 14.0306 18.5669L26.5004 6.44444Z" fill="#535D69"/>
<path d="M26.8236 31.2559L19.2202 23.978C18.959 23.728 18.9547 23.3128 19.2108 23.0574L21.2103 21.0638C21.457 20.8178 21.8549 20.8114 22.1094 21.0493L26.8236 25.4559V31.2559Z" fill="#DDD0A4"/>
<path d="M26.8232 31.2559L34.4266 23.978C34.6879 23.728 34.6921 23.3128 34.436 23.0574L32.4365 21.0638C32.1898 20.8178 31.7919 20.8114 31.5374 21.0493L26.8232 25.4559V31.2559Z" fill="#A89060"/>
<path fill-rule="evenodd" clip-rule="evenodd" d="M26.2782 12.2441L23.0789 15.4339C22.8265 15.6857 22.8265 16.0937 23.0789 16.3453L26.2782 19.5352V12.2441Z" fill="#DDD0A4"/>
<path fill-rule="evenodd" clip-rule="evenodd" d="M26.2783 12.2441L29.4776 15.4339C29.73 15.6857 29.73 16.0937 29.4776 16.3453L26.2783 19.5352V12.2441Z" fill="#A89060"/>
<path d="M26.2167 34.8008C20.7231 34.8008 15.8476 37.456 12.7949 41.5572C16.6391 38.7409 21.0926 37.0788 26.2167 37.0788C30.8003 37.0788 35.3582 38.4088 38.9604 40.7053C35.8897 37.092 31.3198 34.8008 26.2167 34.8008Z" fill="#313C48"/>
<path fill-rule="evenodd" clip-rule="evenodd" d="M12.7949 41.5572C15.8476 37.456 20.7231 34.8008 26.2167 34.8008V37.0788C21.0926 37.0788 16.6391 38.7409 12.7949 41.5572Z" fill="#535D69"/>
<path d="M1.95067 49.3729C1.92795 49.7077 1.89008 49.9783 1.83706 50.1847C1.78404 50.3887 1.69819 50.5611 1.57953 50.7021V50.7323H3.96544V46.926H2.10594L1.95067 49.3729ZM0.992523 51.5555V52.6316H0.102539V50.7323H0.492617C0.676928 50.6165 0.809473 50.4478 0.890266 50.2263C0.971059 50.0022 1.02282 49.6977 1.04554 49.3125L1.24248 46.1066H4.93874V50.7323H5.62043V52.6316H4.73423V51.5555H0.992523ZM9.85829 50.7323V51.5555H6.32105V46.1066H9.85829V46.9298H7.29813V48.4025H9.71816V49.1766H7.29813V50.7323H9.85829ZM15.1527 51.5555H14.1756V46.926H12.4373L12.2896 49.4446C12.2467 50.1722 12.1041 50.7134 11.8617 51.0683C11.6193 51.4208 11.2494 51.597 10.752 51.597C10.6106 51.597 10.492 51.5819 10.396 51.5517V50.6983C10.4718 50.7159 10.5501 50.7247 10.6309 50.7247C10.8808 50.7247 11.0626 50.619 11.1762 50.4076C11.2898 50.1936 11.3592 49.8537 11.3845 49.388L11.5625 46.1066H15.1527V51.5555ZM18.599 46.016C19.3943 46.016 20.0243 46.269 20.4888 46.775C20.9559 47.281 21.1894 47.9669 21.1894 48.8329C21.1894 49.6989 20.9559 50.3849 20.4888 50.8909C20.0243 51.3944 19.3943 51.6461 18.599 51.6461C17.8012 51.6461 17.1687 51.3944 16.7016 50.8909C16.2371 50.3849 16.0048 49.6989 16.0048 48.8329C16.0048 47.9669 16.2371 47.281 16.7016 46.775C17.1687 46.269 17.8012 46.016 18.599 46.016ZM19.7617 47.3867C19.4738 47.0268 19.0863 46.8468 18.599 46.8468C18.1117 46.8468 17.7242 47.0255 17.4364 47.3829C17.1485 47.7404 17.0046 48.2237 17.0046 48.8329C17.0046 49.4396 17.1485 49.9217 17.4364 50.2791C17.7242 50.6366 18.1117 50.8154 18.599 50.8154C19.0863 50.8154 19.4738 50.6366 19.7617 50.2791C20.0495 49.9217 20.1934 49.4396 20.1934 48.8329C20.1934 48.2263 20.0495 47.7441 19.7617 47.3867ZM28.3206 48.7008L30.6914 51.5555H29.4682L27.4193 49.0708H27.389V51.5555H26.4346V49.0708H26.4044L24.3403 51.5555H23.1474L25.4992 48.7121L23.3103 46.1066H24.4464L26.4044 48.4893H26.4346V46.1066H27.389V48.4893H27.4193L29.381 46.1066H30.4982L28.3206 48.7008ZM34.9368 51.5555V47.6359H34.8876L32.2328 51.5555H31.286V46.1066H32.2593V50.0375H32.3085L34.9595 46.1066H35.9063V51.5555H34.9368ZM38.0423 49.1652V48.3798H38.7694C39.0674 48.3798 39.3084 48.303 39.4928 48.1494C39.6771 47.9959 39.7692 47.7958 39.7692 47.5491C39.7692 47.3049 39.6821 47.1123 39.5079 46.9713C39.3362 46.8279 39.1001 46.7561 38.7997 46.7561C38.4967 46.7561 38.2518 46.8304 38.065 46.9789C37.8782 47.1274 37.7747 47.3301 37.7545 47.5868H36.8418C36.867 47.0909 37.0576 46.6982 37.4136 46.4087C37.7696 46.1167 38.2405 45.9707 38.8262 45.9707C39.3842 45.9707 39.8386 46.1079 40.1896 46.3823C40.5406 46.6541 40.716 47.0066 40.716 47.4396C40.716 47.7441 40.6214 48.0123 40.432 48.2439C40.2426 48.4755 39.9965 48.6252 39.6935 48.6932V48.7234C40.0596 48.7662 40.3499 48.9085 40.5645 49.1501C40.7791 49.3918 40.8864 49.6964 40.8864 50.0639C40.8864 50.5296 40.6883 50.9173 40.2919 51.2269C39.898 51.5366 39.4031 51.6914 38.8073 51.6914C38.1988 51.6914 37.7027 51.5416 37.3189 51.2421C36.9377 50.9425 36.7345 50.546 36.7092 50.0526H37.6484C37.6686 50.3068 37.7835 50.5095 37.993 50.6605C38.2051 50.8091 38.4778 50.8833 38.8111 50.8833C39.1317 50.8833 39.3905 50.8028 39.5874 50.6416C39.7844 50.4805 39.8829 50.2691 39.8829 50.0073C39.8829 49.743 39.7856 49.5365 39.5912 49.388C39.3993 49.2395 39.1317 49.1652 38.7883 49.1652H38.0423ZM46.2945 51.5555H45.3212V49.1916H42.6626V51.5555H41.6855V46.1066H42.6626V48.3722H45.3212V46.1066H46.2945V51.5555ZM50.9868 51.5555V47.6359H50.9376L48.2828 51.5555H47.3359V46.1066H48.3093V50.0375H48.3585L51.0095 46.1066H51.9563V51.5555H50.9868Z" fill="#313C48"/>
<path d="M9.72154 55.3684H9.27466C9.24816 55.274 9.19826 55.1972 9.1251 55.1381C9.05186 55.0789 8.95905 55.0493 8.84672 55.0493C8.69773 55.0493 8.57907 55.1091 8.49071 55.2287C8.40365 55.347 8.36009 55.5075 8.36009 55.7102C8.36009 55.9153 8.40365 56.077 8.49071 56.1954C8.57907 56.3124 8.69838 56.371 8.84859 56.371C8.96099 56.371 9.05374 56.3433 9.12697 56.2879C9.20143 56.2325 9.25197 56.1544 9.27847 56.0538H9.72535C9.69633 56.2652 9.60287 56.4345 9.4451 56.5617C9.28855 56.6875 9.08845 56.7504 8.84484 56.7504C8.55069 56.7504 8.31717 56.6573 8.14421 56.471C7.97125 56.2847 7.88477 56.0311 7.88477 55.7102C7.88477 55.393 7.97125 55.14 8.14421 54.9511C8.31717 54.7624 8.5494 54.668 8.84103 54.668C9.08593 54.668 9.28668 54.734 9.44322 54.8662C9.5997 54.9984 9.69252 55.1657 9.72154 55.3684ZM11.5678 54.7095V55.072H10.9505V56.7108H10.4828V55.072H9.86548V54.7095H11.5678ZM12.9633 54.6755C13.2184 54.6755 13.4209 54.768 13.5712 54.9531C13.7214 55.1381 13.7965 55.3905 13.7965 55.7102C13.7965 56.0286 13.7221 56.2803 13.5731 56.4653C13.4241 56.6503 13.2234 56.7429 12.971 56.7429C12.827 56.7429 12.7001 56.7108 12.5903 56.6466C12.4805 56.5811 12.3978 56.4918 12.3423 56.3785H12.3328V57.3697H11.8613V54.7095H12.3214V55.055H12.3309C12.389 54.9367 12.4729 54.8442 12.5828 54.7775C12.6926 54.7095 12.8195 54.6755 12.9633 54.6755ZM12.8195 56.3577C12.9722 56.3577 13.0927 56.2998 13.1811 56.184C13.2695 56.067 13.3136 55.909 13.3136 55.7102C13.3136 55.5125 13.2689 55.3552 13.1792 55.2381C13.0909 55.1211 12.971 55.0626 12.8195 55.0626C12.673 55.0626 12.555 55.1217 12.4653 55.24C12.3757 55.3584 12.3302 55.515 12.329 55.7102C12.3302 55.9065 12.3757 56.0638 12.4653 56.1822C12.555 56.2992 12.673 56.3577 12.8195 56.3577ZM14.874 56.3879C15.0091 56.3879 15.1227 56.3483 15.2148 56.269C15.3083 56.1885 15.3549 56.0884 15.3549 55.9688V55.8158L14.891 55.8442C14.7774 55.8517 14.6891 55.88 14.6259 55.9291C14.5641 55.977 14.5332 56.0406 14.5332 56.1198C14.5332 56.2017 14.5641 56.2671 14.6259 56.3162C14.6891 56.364 14.7717 56.3879 14.874 56.3879ZM14.732 56.7429C14.5363 56.7429 14.3753 56.6869 14.2491 56.5749C14.1241 56.4628 14.0617 56.3174 14.0617 56.1387C14.0617 55.9612 14.1273 55.8209 14.2585 55.7177C14.3911 55.6145 14.5798 55.5553 14.8247 55.5402L15.3549 55.51V55.3665C15.3549 55.2621 15.3215 55.1809 15.2546 55.1229C15.1889 55.0651 15.0974 55.0361 14.98 55.0361C14.8702 55.0361 14.7806 55.0607 14.7111 55.1097C14.6417 55.1588 14.5994 55.2255 14.5843 55.3099H14.1468C14.1569 55.1198 14.2384 54.9656 14.3911 54.8473C14.5451 54.7278 14.7477 54.668 14.999 54.668C15.2476 54.668 15.4464 54.7284 15.5954 54.8492C15.7456 54.97 15.8207 55.1311 15.8207 55.3325V56.7108H15.3663V56.3917H15.3569C15.3 56.4987 15.2142 56.5843 15.0993 56.6485C14.9844 56.7114 14.862 56.7429 14.732 56.7429ZM17.0194 55.9933H17.0099L16.5934 56.7108H16.0916L16.7391 55.712L16.0972 54.7095H16.6274L17.0326 55.4118H17.0421L17.4417 54.7095H17.9586L17.3129 55.6988L17.951 56.7108H17.436L17.0194 55.9933ZM19.7821 56.4729C19.6067 56.6579 19.3706 56.7504 19.0739 56.7504C18.7773 56.7504 18.5412 56.6579 18.3657 56.4729C18.1903 56.2866 18.1025 56.0324 18.1025 55.7102C18.1025 55.3892 18.1909 55.1356 18.3676 54.9493C18.5444 54.7617 18.7798 54.668 19.0739 54.668C19.3693 54.668 19.6047 54.7617 19.7802 54.9493C19.957 55.1356 20.0454 55.3892 20.0454 55.7102C20.0454 56.0324 19.9576 56.2866 19.7821 56.4729ZM18.7142 56.2029C18.8025 56.32 18.9225 56.3785 19.0739 56.3785C19.2254 56.3785 19.3454 56.32 19.4337 56.2029C19.5221 56.0859 19.5663 55.9216 19.5663 55.7102C19.5663 55.4999 19.5221 55.3363 19.4337 55.2192C19.3454 55.101 19.2254 55.0418 19.0739 55.0418C18.9237 55.0418 18.8038 55.101 18.7142 55.2192C18.6258 55.3363 18.5816 55.4999 18.5816 55.7102C18.5816 55.9216 18.6258 56.0859 18.7142 56.2029ZM21.2269 55.0285H20.8463V55.527H21.1909C21.4131 55.527 21.5242 55.4427 21.5242 55.274C21.5242 55.196 21.4983 55.1356 21.4466 55.0928C21.3961 55.05 21.3229 55.0285 21.2269 55.0285ZM21.2194 55.8253H20.8463V56.3917H21.2572C21.3696 56.3917 21.4554 56.3678 21.5147 56.32C21.5741 56.2709 21.6038 56.2004 21.6038 56.1085C21.6038 55.9197 21.4756 55.8253 21.2194 55.8253ZM20.3843 56.7108V54.7095H21.3367C21.5387 54.7095 21.6971 54.7548 21.8121 54.8454C21.9269 54.9348 21.9844 55.0588 21.9844 55.2174C21.9844 55.3218 21.9503 55.4156 21.8821 55.4987C21.8152 55.5805 21.7319 55.6302 21.6322 55.6478V55.6629C21.7647 55.6806 21.8714 55.7321 21.9522 55.8178C22.033 55.9034 22.0734 56.0085 22.0734 56.133C22.0734 56.3105 22.0084 56.4515 21.8783 56.556C21.7496 56.6592 21.5741 56.7108 21.3519 56.7108H20.3843ZM23.1565 56.3879C23.2915 56.3879 23.4052 56.3483 23.4973 56.269C23.5907 56.1885 23.6375 56.0884 23.6375 55.9688V55.8158L23.1735 55.8442C23.0599 55.8517 22.9715 55.88 22.9085 55.9291C22.8466 55.977 22.8156 56.0406 22.8156 56.1198C22.8156 56.2017 22.8466 56.2671 22.9085 56.3162C22.9715 56.364 23.0542 56.3879 23.1565 56.3879ZM23.0145 56.7429C22.8188 56.7429 22.6579 56.6869 22.5316 56.5749C22.4066 56.4628 22.3441 56.3174 22.3441 56.1387C22.3441 55.9612 22.4098 55.8209 22.5411 55.7177C22.6736 55.6145 22.8624 55.5553 23.1073 55.5402L23.6375 55.51V55.3665C23.6375 55.2621 23.604 55.1809 23.5371 55.1229C23.4715 55.0651 23.38 55.0361 23.2625 55.0361C23.1527 55.0361 23.0631 55.0607 22.9936 55.1097C22.9242 55.1588 22.8819 55.2255 22.8668 55.3099H22.4293C22.4395 55.1198 22.5209 54.9656 22.6736 54.8473C22.8277 54.7278 23.0302 54.668 23.2815 54.668C23.5302 54.668 23.729 54.7284 23.878 54.8492C24.0282 54.97 24.1033 55.1311 24.1033 55.3325V56.7108H23.6488V56.3917H23.6393C23.5825 56.4987 23.4967 56.5843 23.3818 56.6485C23.2669 56.7114 23.1445 56.7429 23.0145 56.7429ZM25.3095 55.697H25.6579V55.0682H25.3095C25.2009 55.0682 25.1144 55.0972 25.05 55.155C24.987 55.213 24.9554 55.2917 24.9554 55.391C24.9554 55.4804 24.9876 55.5541 25.052 55.6119C25.1164 55.6686 25.2022 55.697 25.3095 55.697ZM25.6579 56.7108V56.0406H25.389L24.9213 56.7108H24.3949L24.9345 55.9669C24.7944 55.9241 24.6846 55.853 24.6051 55.7535C24.5268 55.6529 24.4877 55.5327 24.4877 55.393C24.4877 55.1827 24.5584 55.0166 24.6997 54.8945C24.8424 54.7711 25.0336 54.7095 25.2735 54.7095H26.1199V56.7108H25.6579ZM28.237 55.644L29.127 56.7108H28.5494L27.8033 55.8158H27.7882V56.7108H27.3186V54.7095H27.7882V55.544H27.8033L28.538 54.7095H29.0872L28.237 55.644ZM30.9088 56.4729C30.7333 56.6579 30.4973 56.7504 30.2006 56.7504C29.9039 56.7504 29.6679 56.6579 29.4924 56.4729C29.3169 56.2866 29.2292 56.0324 29.2292 55.7102C29.2292 55.3892 29.3176 55.1356 29.4943 54.9493C29.671 54.7617 29.9065 54.668 30.2006 54.668C30.496 54.668 30.7314 54.7617 30.9069 54.9493C31.0836 55.1356 31.172 55.3892 31.172 55.7102C31.172 56.0324 31.0843 56.2866 30.9088 56.4729ZM29.8408 56.2029C29.9292 56.32 30.0491 56.3785 30.2006 56.3785C30.3521 56.3785 30.472 56.32 30.5604 56.2029C30.6487 56.0859 30.6929 55.9216 30.6929 55.7102C30.6929 55.4999 30.6487 55.3363 30.5604 55.2192C30.472 55.101 30.3521 55.0418 30.2006 55.0418C30.0504 55.0418 29.9304 55.101 29.8408 55.2192C29.7524 55.3363 29.7083 55.4999 29.7083 55.7102C29.7083 55.9216 29.7524 56.0859 29.8408 56.2029ZM31.9598 56.7108H31.5109V54.7095H32.1112L32.7039 56.1066H32.7191L33.3118 54.7095H33.9025V56.7108H33.4538V55.342H33.4386L32.8725 56.6182H32.5392L31.973 55.342H31.9598V56.7108ZM35.6238 56.7108V55.072H34.7944V56.7108H34.3248V54.7095H36.0953V56.7108H35.6238ZM37.2523 56.3879C37.3873 56.3879 37.501 56.3483 37.5931 56.269C37.6865 56.1885 37.7333 56.0884 37.7333 55.9688V55.8158L37.2693 55.8442C37.1557 55.8517 37.0673 55.88 37.0043 55.9291C36.9423 55.977 36.9114 56.0406 36.9114 56.1198C36.9114 56.2017 36.9423 56.2671 37.0043 56.3162C37.0673 56.364 37.15 56.3879 37.2523 56.3879ZM37.1103 56.7429C36.9146 56.7429 36.7537 56.6869 36.6274 56.5749C36.5024 56.4628 36.4399 56.3174 36.4399 56.1387C36.4399 55.9612 36.5056 55.8209 36.6369 55.7177C36.7694 55.6145 36.9582 55.5553 37.2031 55.5402L37.7333 55.51V55.3665C37.7333 55.2621 37.6998 55.1809 37.6329 55.1229C37.5672 55.0651 37.4757 55.0361 37.3583 55.0361C37.2485 55.0361 37.1589 55.0607 37.0894 55.1097C37.02 55.1588 36.9777 55.2255 36.9626 55.3099H36.5251C36.5353 55.1198 36.6166 54.9656 36.7694 54.8473C36.9235 54.7278 37.126 54.668 37.3773 54.668C37.626 54.668 37.8248 54.7284 37.9738 54.8492C38.124 54.97 38.1991 55.1311 38.1991 55.3325V56.7108H37.7446V56.3917H37.7351C37.6783 56.4987 37.5925 56.5843 37.4776 56.6485C37.3627 56.7114 37.2403 56.7429 37.1103 56.7429ZM39.9298 56.7108V55.8612H39.0815V56.7108H38.6119V54.7095H39.0815V55.4987H39.9298V54.7095H40.3994V56.7108H39.9298ZM41.2856 56.7108H40.8236V54.7095H41.2856V56.0462H41.3007L42.1737 54.7095H42.6357V56.7108H42.1737V55.3646H42.1586L41.2856 56.7108ZM43.8514 55.697H44.1998V55.0682H43.8514C43.7428 55.0682 43.6563 55.0972 43.592 55.155C43.5289 55.213 43.4973 55.2917 43.4973 55.391C43.4973 55.4804 43.5295 55.5541 43.5939 55.6119C43.6583 55.6686 43.7441 55.697 43.8514 55.697ZM44.1998 56.7108V56.0406H43.931L43.4632 56.7108H42.9368L43.4765 55.9669C43.3363 55.9241 43.2265 55.853 43.147 55.7535C43.0687 55.6529 43.0296 55.5327 43.0296 55.393C43.0296 55.1827 43.1003 55.0166 43.2416 54.8945C43.3843 54.7711 43.5755 54.7095 43.8154 54.7095H44.6618V56.7108H44.1998Z" fill="#A89060"/>
</svg>
